<svg width="132" height="44" viewBox="0 0 132 44" fill="none" xmlns="http://www.w3.org/2000/svg">
<path d="M32.5527 8.78723C32.5523 8.39035 32.4476 8.00056 32.2489 7.65695C32.0503 7.31335 31.7648 7.02801 31.4211 6.82958L23.5 2.30321C23.156 2.10457 22.7657 2 22.3684 2C21.9711 2 21.5809 2.10457 21.2368 2.30321L13.3157 6.82958C12.972 7.02801 12.6865 7.31335 12.4879 7.65695C12.2893 8.00056 12.1845 8.39035 12.1841 8.78723V17.84C12.1845 18.2368 12.2893 18.6266 12.4879 18.9702C12.6865 19.3138 12.972 19.5992 13.3157 19.7976L21.2368 24.324C21.5809 24.5226 21.9711 24.6272 22.3684 24.6272C22.7657 24.6272 23.156 24.5226 23.5 24.324L31.4211 19.7976C31.7648 19.5992 32.0503 19.3138 32.2489 18.9702C32.4476 18.6266 32.5523 18.2368 32.5527 17.84V8.78723Z" stroke="black" stroke-width="2.0877" stroke-linecap="round" stroke-linejoin="round"/>
<path d="M12.5244 7.65576L22.3693 13.3137M22.3693 13.3137L32.2141 7.65576M22.3693 13.3137V24.6296" stroke="black" stroke-width="2.0877" stroke-linecap="round" stroke-linejoin="round"/>
<path d="M32.5527 8.78723C32.5523 8.39035 32.4476 8.00056 32.2489 7.65695C32.0503 7.31335 31.7648 7.02801 31.4211 6.82958L23.5 2.30321C23.156 2.10457 22.7657 2 22.3684 2C21.9711 2 21.5809 2.10457 21.2368 2.30321L13.3157 6.82958C12.972 7.02801 12.6865 7.31335 12.4879 7.65695C12.2893 8.00056 12.1845 8.39035 12.1841 8.78723V17.84C12.1845 18.2368 12.2893 18.6266 12.4879 18.9702C12.6865 19.3138 12.972 19.5992 13.3157 19.7976L21.2368 24.324C21.5809 24.5226 21.9711 24.6272 22.3684 24.6272C22.7657 24.6272 23.156 24.5226 23.5 24.324L31.4211 19.7976C31.7648 19.5992 32.0503 19.3138 32.2489 18.9702C32.4476 18.6266 32.5523 18.2368 32.5527 17.84V8.78723Z" stroke="black" stroke-width="2.0877" stroke-linecap="round" stroke-linejoin="round"/>
<path d="M12.5244 7.65576L22.3693 13.3137M22.3693 13.3137L32.2141 7.65576M22.3693 13.3137V24.6296" stroke="black" stroke-width="2.0877" stroke-linecap="round" stroke-linejoin="round"/>
<path d="M22.3687 26.8927C22.3682 26.4958 22.2635 26.106 22.0649 25.7624C21.8662 25.4188 21.5808 25.1335 21.2371 24.935L13.3159 20.4087C12.9719 20.21 12.5816 20.1055 12.1843 20.1055C11.7871 20.1055 11.3968 20.21 11.0527 20.4087L3.0499 24.9845L3.13159 24.935C2.78788 25.1335 2.5024 25.4188 2.30379 25.7624C2.10517 26.106 2.00041 26.4958 2 26.8927V35.9454C2.00041 36.3423 2.10517 36.7321 2.30379 37.0757C2.5024 37.4193 2.78788 37.7046 3.13159 37.9031L11.0527 42.4295C11.3968 42.6281 11.7871 42.7327 12.1843 42.7327C12.5816 42.7327 12.9719 42.6281 13.3159 42.4295L21.2371 37.9031C21.5808 37.7046 21.8662 37.4193 22.0649 37.0757C22.2635 36.7321 22.3682 36.3423 22.3687 35.9454V26.8927Z" stroke="black" stroke-width="2.0877" stroke-linecap="round" stroke-linejoin="round"/>
<path d="M2.34033 25.7612L12.1852 31.4192M12.1852 31.4192L22.03 25.7612M12.1852 31.4192V42.7351" stroke="black" stroke-width="2.0877" stroke-linecap="round" stroke-linejoin="round"/>
<path d="M22.3687 26.8927C22.3682 26.4958 22.2635 26.106 22.0649 25.7624C21.8662 25.4188 21.5808 25.1335 21.2371 24.935L13.3159 20.4087C12.9719 20.21 12.5816 20.1055 12.1843 20.1055C11.7871 20.1055 11.3968 20.21 11.0527 20.4087L3.0499 24.9845L3.13159 24.935C2.78788 25.1335 2.5024 25.4188 2.30379 25.7624C2.10517 26.106 2.00041 26.4958 2 26.8927V35.9454C2.00041 36.3423 2.10517 36.7321 2.30379 37.0757C2.5024 37.4193 2.78788 37.7046 3.13159 37.9031L11.0527 42.4295C11.3968 42.6281 11.7871 42.7327 12.1843 42.7327C12.5816 42.7327 12.9719 42.6281 13.3159 42.4295L21.2371 37.9031C21.5808 37.7046 21.8662 37.4193 22.0649 37.0757C22.2635 36.7321 22.3682 36.3423 22.3687 35.9454V26.8927Z" stroke="black" stroke-width="2.0877" stroke-linecap="round" stroke-linejoin="round"/>
<path d="M2.34033 25.7612L12.1852 31.4192M12.1852 31.4192L22.03 25.7612M12.1852 31.4192V42.7351" stroke="black" stroke-width="2.0877" stroke-linecap="round" stroke-linejoin="round"/>
<path d="M26.9665 27.3932L27.8228 25.6824L29.5337 26.5387" stroke="black" stroke-width="1.01462" stroke-linecap="round" stroke-linejoin="round"/>
<path d="M25.7882 31.3498C27.7376 30.701 28.792 28.5945 28.1432 26.6451L27.8228 25.6824" stroke="black" stroke-width="1.01462" stroke-linecap="round" stroke-linejoin="round"/>
<path d="M26.9665 27.3932L27.8228 25.6824L29.5337 26.5387" stroke="black" stroke-width="1.25262" stroke-linecap="round" stroke-linejoin="round"/>
<path d="M25.7882 31.3498C27.7376 30.701 28.792 28.5945 28.1432 26.6451L27.8228 25.6824" stroke="black" stroke-width="1.25262" stroke-linecap="round" stroke-linejoin="round"/>
<path d="M7.88655 17.1032L7.03018 18.814L5.31935 17.9576" stroke="black" stroke-width="1.01462" stroke-linecap="round" stroke-linejoin="round"/>
<path d="M9.06487 13.1465C7.11541 13.7954 6.061 15.9018 6.70985 17.8513L7.03027 18.814" stroke="black" stroke-width="1.01462" stroke-linecap="round" stroke-linejoin="round"/>
<path d="M7.88655 17.1032L7.03018 18.814L5.31935 17.9576" stroke="black" stroke-width="1.25262" stroke-linecap="round" stroke-linejoin="round"/>
<path d="M9.06487 13.1465C7.11541 13.7954 6.061 15.9018 6.70985 17.8513L7.03027 18.814" stroke="black" stroke-width="1.25262" stroke-linecap="round" stroke-linejoin="round"/>
<path d="M49.8467 32.2663V16.3254H52.4821V18.6394L52.225 18.0609C52.6249 17.4324 53.1677 16.9468 53.8533 16.604C54.539 16.2469 55.3317 16.0683 56.2316 16.0683C57.3315 16.0683 58.3242 16.3397 59.2098 16.8825C60.0954 17.4253 60.7953 18.1538 61.3096 19.0679C61.8381 19.9821 62.1023 21.0106 62.1023 22.1533C62.1023 23.2817 61.8452 24.3102 61.331 25.2386C60.8168 26.1671 60.1169 26.9027 59.2312 27.4455C58.3456 27.974 57.3386 28.2382 56.2102 28.2382C55.3674 28.2382 54.589 28.074 53.8748 27.7454C53.1748 27.4026 52.6178 26.917 52.2035 26.2885L52.6535 25.7314V32.2663H49.8467ZM55.8888 25.6671C56.5316 25.6671 57.1029 25.5171 57.6029 25.2172C58.1028 24.9172 58.4885 24.503 58.7599 23.9745C59.0456 23.446 59.1884 22.8389 59.1884 22.1533C59.1884 21.4676 59.0456 20.8677 58.7599 20.3535C58.4885 19.825 58.1028 19.4108 57.6029 19.1108C57.1029 18.7965 56.5316 18.6394 55.8888 18.6394C55.2746 18.6394 54.7175 18.7894 54.2176 19.0894C53.7319 19.3893 53.3463 19.8107 53.0606 20.3535C52.7892 20.882 52.6535 21.4819 52.6535 22.1533C52.6535 22.8389 52.7892 23.446 53.0606 23.9745C53.3463 24.503 53.7319 24.9172 54.2176 25.2172C54.7175 25.5171 55.2746 25.6671 55.8888 25.6671Z" fill="black"/>
<path d="M68.6988 28.2382C67.499 28.2382 66.4491 27.9669 65.5492 27.4241C64.6493 26.8813 63.9494 26.1456 63.4495 25.2172C62.9495 24.2887 62.6996 23.2603 62.6996 22.1318C62.6996 20.9606 62.9495 19.925 63.4495 19.0251C63.9637 18.1109 64.6565 17.3896 65.5278 16.8611C66.4134 16.3326 67.399 16.0683 68.4846 16.0683C69.3988 16.0683 70.1987 16.2183 70.8843 16.5182C71.5842 16.8182 72.177 17.2324 72.6626 17.761C73.1483 18.2895 73.5197 18.8965 73.7768 19.5822C74.0339 20.2535 74.1625 20.982 74.1625 21.7676C74.1625 21.9676 74.1482 22.1747 74.1196 22.389C74.1053 22.6032 74.0696 22.7889 74.0125 22.946H65.0136V20.8034H72.427L71.0985 21.8105C71.2271 21.1534 71.1914 20.5678 70.9914 20.0535C70.8057 19.5393 70.4915 19.1322 70.0487 18.8323C69.6202 18.5323 69.0988 18.3823 68.4846 18.3823C67.8989 18.3823 67.3776 18.5323 66.9205 18.8323C66.4634 19.1179 66.1134 19.5465 65.8706 20.1178C65.6421 20.6749 65.5564 21.3534 65.6135 22.1533C65.5564 22.8675 65.6492 23.5031 65.892 24.0602C66.1492 24.603 66.5205 25.0244 67.0062 25.3243C67.5061 25.6243 68.0775 25.7743 68.7203 25.7743C69.363 25.7743 69.9058 25.6386 70.3486 25.3672C70.8057 25.0958 71.1628 24.7315 71.4199 24.2744L73.6911 25.3886C73.4625 25.9457 73.1054 26.4385 72.6198 26.867C72.1341 27.2955 71.5556 27.6312 70.8843 27.874C70.2272 28.1168 69.4987 28.2382 68.6988 28.2382Z" fill="black"/>
<path d="M80.7468 28.2382C79.5469 28.2382 78.497 27.9669 77.5971 27.4241C76.6972 26.8813 75.9973 26.1456 75.4974 25.2172C74.9975 24.2887 74.7475 23.2603 74.7475 22.1318C74.7475 20.9606 74.9975 19.925 75.4974 19.0251C76.0116 18.1109 76.7044 17.3896 77.5757 16.8611C78.4613 16.3326 79.4469 16.0683 80.5325 16.0683C81.4467 16.0683 82.2466 16.2183 82.9322 16.5182C83.6321 16.8182 84.2249 17.2324 84.7106 17.761C85.1962 18.2895 85.5676 18.8965 85.8247 19.5822C86.0818 20.2535 86.2104 20.982 86.2104 21.7676C86.2104 21.9676 86.1961 22.1747 86.1675 22.389C86.1532 22.6032 86.1175 22.7889 86.0604 22.946H77.0615V20.8034H84.4749L83.1465 21.8105C83.275 21.1534 83.2393 20.5678 83.0393 20.0535C82.8536 19.5393 82.5394 19.1322 82.0966 18.8323C81.6681 18.5323 81.1467 18.3823 80.5325 18.3823C79.9469 18.3823 79.4255 18.5323 78.9684 18.8323C78.5113 19.1179 78.1614 19.5465 77.9185 20.1178C77.69 20.6749 77.6043 21.3534 77.6614 22.1533C77.6043 22.8675 77.6971 23.5031 77.94 24.0602C78.1971 24.603 78.5684 25.0244 79.0541 25.3243C79.554 25.6243 80.1254 25.7743 80.7682 25.7743C81.411 25.7743 81.9537 25.6386 82.3966 25.3672C82.8536 25.0958 83.2107 24.7315 83.4679 24.2744L85.739 25.3886C85.5105 25.9457 85.1534 26.4385 84.6677 26.867C84.1821 27.2955 83.6035 27.6312 82.9322 27.874C82.2751 28.1168 81.5467 28.2382 80.7468 28.2382Z" fill="black"/>
<path d="M87.2668 27.9811V16.3254H89.9022V18.618L89.6879 18.2109C89.9593 17.511 90.4021 16.9825 91.0163 16.6254C91.6448 16.254 92.3733 16.0683 93.2018 16.0683C94.0588 16.0683 94.8159 16.254 95.4729 16.6254C96.1443 16.9968 96.6656 17.5181 97.037 18.1895C97.4084 18.8465 97.5941 19.6107 97.5941 20.4821V27.9811H94.7873V21.1463C94.7873 20.632 94.6873 20.1892 94.4873 19.8178C94.2873 19.4465 94.0088 19.1608 93.6517 18.9608C93.3089 18.7465 92.9018 18.6394 92.4304 18.6394C91.9733 18.6394 91.5662 18.7465 91.2091 18.9608C90.852 19.1608 90.5735 19.4465 90.3735 19.8178C90.1736 20.1892 90.0736 20.632 90.0736 21.1463V27.9811H87.2668Z" fill="black"/>
<path d="M97.2893 32.7163C97.1036 32.7163 96.9107 32.7091 96.7108 32.6948C96.5108 32.6806 96.3465 32.6591 96.218 32.6306V30.188C96.4751 30.2309 96.7322 30.2523 96.9893 30.2523C97.5892 30.2523 98.0535 30.1094 98.382 29.8238C98.7248 29.5524 98.8962 29.131 98.8962 28.5596V16.3254H101.703V28.5596C101.703 29.4452 101.524 30.1952 101.167 30.8094C100.81 31.4379 100.296 31.9092 99.6247 32.2235C98.9676 32.552 98.1892 32.7163 97.2893 32.7163ZM98.8962 15.0184V12.0188H101.703V15.0184H98.8962Z" fill="black"/>
<path d="M106.759 28.2382C105.944 28.2382 105.237 28.1025 104.637 27.8312C104.037 27.5598 103.573 27.1741 103.245 26.6742C102.916 26.1599 102.752 25.5671 102.752 24.8958C102.752 24.253 102.895 23.6817 103.18 23.1817C103.466 22.6675 103.909 22.239 104.509 21.8962C105.109 21.5533 105.866 21.3105 106.78 21.1677L110.594 20.5463V22.6889L107.316 23.246C106.759 23.346 106.344 23.5245 106.073 23.7816C105.802 24.0388 105.666 24.3744 105.666 24.7887C105.666 25.1886 105.816 25.51 106.116 25.7528C106.43 25.9814 106.816 26.0957 107.273 26.0957C107.858 26.0957 108.373 25.9742 108.815 25.7314C109.273 25.4743 109.622 25.1243 109.865 24.6815C110.122 24.2387 110.251 23.7531 110.251 23.2246V20.2249C110.251 19.725 110.051 19.3108 109.651 18.9822C109.265 18.6394 108.751 18.468 108.108 18.468C107.508 18.468 106.973 18.6323 106.501 18.9608C106.044 19.2751 105.709 19.6964 105.494 20.2249L103.202 19.1108C103.43 18.4966 103.787 17.9681 104.273 17.5253C104.773 17.0682 105.359 16.7111 106.03 16.454C106.701 16.1969 107.43 16.0683 108.215 16.0683C109.173 16.0683 110.015 16.2469 110.744 16.604C111.472 16.9468 112.036 17.4324 112.436 18.0609C112.851 18.6751 113.058 19.3965 113.058 20.2249V27.9811H110.401V25.9885L111.001 25.9457C110.701 26.4456 110.344 26.867 109.93 27.2098C109.515 27.5383 109.044 27.7954 108.515 27.9811C107.987 28.1525 107.401 28.2382 106.759 28.2382Z" fill="black"/>
<path d="M114.581 27.9811V16.3254H117.216V19.0251L116.916 18.5751C117.13 17.7324 117.559 17.1039 118.202 16.6897C118.844 16.2754 119.601 16.0683 120.473 16.0683C121.43 16.0683 122.273 16.3183 123.001 16.8182C123.73 17.3182 124.201 17.9752 124.415 18.7894L123.622 18.8537C123.98 17.9252 124.515 17.2324 125.229 16.7754C125.944 16.304 126.765 16.0683 127.693 16.0683C128.522 16.0683 129.257 16.254 129.9 16.6254C130.557 16.9968 131.072 17.5181 131.443 18.1895C131.814 18.8465 132 19.6107 132 20.4821V27.9811H129.193V21.1463C129.193 20.632 129.1 20.1892 128.915 19.8178C128.729 19.4465 128.472 19.1608 128.143 18.9608C127.815 18.7465 127.415 18.6394 126.943 18.6394C126.501 18.6394 126.108 18.7465 125.765 18.9608C125.422 19.1608 125.158 19.4465 124.972 19.8178C124.787 20.1892 124.694 20.632 124.694 21.1463V27.9811H121.887V21.1463C121.887 20.632 121.794 20.1892 121.608 19.8178C121.423 19.4465 121.158 19.1608 120.816 18.9608C120.487 18.7465 120.094 18.6394 119.637 18.6394C119.194 18.6394 118.802 18.7465 118.459 18.9608C118.116 19.1608 117.852 19.4465 117.666 19.8178C117.48 20.1892 117.387 20.632 117.387 21.1463V27.9811H114.581Z" fill="black"/>
</svg>
